# Blender v2.80 (sub 75) OBJ File: 'mirror-stick.blend'
# www.blender.org
mtllib mirror-stick.mtl
o Cube
v 2.832676 2.832676 -2.832676
v 2.832676 -2.832676 -2.832676
v 2.832676 2.832676 2.832676
v 2.832676 -2.832676 2.832676
v -2.832676 2.832676 -2.832676
v -2.832676 -2.832676 -2.832676
v -2.832676 2.832676 2.832676
v -2.832676 -2.832676 2.832676
vt 0.625000 0.000000
vt 0.375000 0.250000
vt 0.375000 0.000000
vt 0.625000 0.250000
vt 0.375000 0.500000
vt 0.375000 0.250000
vt 0.625000 0.500000
vt 0.375000 0.750000
vt 0.625000 0.750000
vt 0.375000 1.000000
vt 0.375000 0.500000
vt 0.125000 0.750000
vt 0.125000 0.500000
vt 0.875000 0.500000
vt 0.625000 0.500000
vt 0.625000 0.250000
vt 0.625000 0.750000
vt 0.625000 1.000000
vt 0.375000 0.750000
vt 0.875000 0.750000
vn 0.0000 1.0000 0.0000
vn 0.0000 0.0000 1.0000
vn -1.0000 0.0000 0.0000
vn 0.0000 -1.0000 0.0000
vn 1.0000 0.0000 0.0000
vn 0.0000 0.0000 -1.0000
usemtl Material
s off
f 5/1/1 3/2/1 1/3/1
f 3/4/2 8/5/2 4/6/2
f 7/7/3 6/8/3 8/5/3
f 2/9/4 8/10/4 6/8/4
f 1/11/5 4/12/5 2/13/5
f 5/14/6 2/9/6 6/15/6
f 5/1/1 7/16/1 3/2/1
f 3/4/2 7/7/2 8/5/2
f 7/7/3 5/17/3 6/8/3
f 2/9/4 4/18/4 8/10/4
f 1/11/5 3/19/5 4/12/5
f 5/14/6 1/20/6 2/9/6
o Cylinder_Cylinder.001
v 0.000000 2.783131 -0.546677
v 0.000000 9.892403 -0.546677
v 0.473436 2.783131 -0.273338
v 0.473436 9.892403 -0.273338
v 0.473436 2.783131 0.273338
v 0.473436 9.892403 0.273338
v -0.000000 2.783131 0.546677
v -0.000000 9.892403 0.546677
v -0.473436 2.783131 0.273338
v -0.473436 9.892403 0.273338
v -0.473436 2.783131 -0.273338
v -0.473436 9.892403 -0.273338
vt 1.000000 1.000000
vt 0.833333 0.500000
vt 1.000000 0.500000
vt 0.833333 1.000000
vt 0.666667 0.500000
vt 0.666667 1.000000
vt 0.500000 0.500000
vt 0.500000 1.000000
vt 0.333333 0.500000
vt 0.250000 0.490000
vt 0.042154 0.130000
vt 0.457846 0.130000
vt 0.333333 1.000000
vt 0.166667 0.500000
vt 0.166667 1.000000
vt -0.000000 0.500000
vt 0.542154 0.130000
vt 0.542154 0.370000
vt 0.957846 0.370000
vt 0.457846 0.370000
vt 0.042154 0.370000
vt 0.250000 0.010000
vt -0.000000 1.000000
vt 0.750000 0.490000
vt 0.957846 0.130000
vt 0.750000 0.010000
vn 0.5000 0.0000 -0.8660
vn 1.0000 0.0000 0.0000
vn 0.5000 0.0000 0.8660
vn -0.5000 0.0000 0.8660
vn 0.0000 1.0000 0.0000
vn -1.0000 0.0000 0.0000
vn -0.5000 0.0000 -0.8660
vn 0.0000 -1.0000 0.0000
usemtl Material.002
s off
f 10/21/7 11/22/7 9/23/7
f 12/24/8 13/25/8 11/22/8
f 14/26/9 15/27/9 13/25/9
f 16/28/10 17/29/10 15/27/10
f 10/30/11 18/31/11 14/32/11
f 18/33/12 19/34/12 17/29/12
f 20/35/13 9/36/13 19/34/13
f 17/37/14 19/38/14 11/39/14
f 10/21/7 12/24/7 11/22/7
f 12/24/8 14/26/8 13/25/8
f 14/26/9 16/28/9 15/27/9
f 16/28/10 18/33/10 17/29/10
f 14/32/11 12/40/11 10/30/11
f 10/30/11 20/41/11 18/31/11
f 18/31/11 16/42/11 14/32/11
f 18/33/12 20/35/12 19/34/12
f 20/35/13 10/43/13 9/36/13
f 19/38/14 9/44/14 11/39/14
f 11/39/14 13/45/14 15/46/14
f 15/46/14 17/37/14 11/39/14
o Plane
v -6.417214 5.713728 -6.326029
v -5.848901 8.276430 -5.796517
v -8.242668 5.713728 -4.366814
v -7.674356 8.276430 -3.837302
vt 1.000000 0.000000
vt 0.000000 0.000000
vt 0.000000 1.000000
vt 1.000000 1.000000
vn -0.7002 0.2901 -0.6524
usemtl Material.003
s off
f 22/47/15 21/48/15 23/49/15
f 22/47/15 23/49/15 24/50/15
