# Blender v2.80 (sub 75) OBJ File: ''
# www.blender.org
mtllib shade-stick.mtl
o Plane
v -7.282763 0.000000 7.282763
v 7.282763 0.000000 7.282763
v -7.282763 0.000000 -7.282763
v 7.282763 0.000000 -7.282763
vt 1.000000 0.000000
vt 0.000000 1.000000
vt 0.000000 0.000000
vt 1.000000 1.000000
vn 0.0000 1.0000 0.0000
usemtl white-plate
s off
f 2/1/1 3/2/1 1/3/1
f 2/1/1 4/4/1 3/2/1
o Cylinder
v 0.000000 -0.021508 -0.500000
v 0.000000 2.978492 -0.500000
v 0.433013 -0.021508 -0.250000
v 0.433013 2.978492 -0.250000
v 0.433013 -0.021508 0.250000
v 0.433013 2.978492 0.250000
v -0.000000 -0.021508 0.500000
v -0.000000 2.978492 0.500000
v -0.433013 -0.021508 0.250000
v -0.433013 2.978492 0.250000
v -0.433013 -0.021508 -0.250000
v -0.433013 2.978492 -0.250000
vt 1.000000 1.000000
vt 0.833333 0.500000
vt 1.000000 0.500000
vt 0.833333 1.000000
vt 0.666667 0.500000
vt 0.666667 1.000000
vt 0.500000 0.500000
vt 0.500000 1.000000
vt 0.333333 0.500000
vt 0.250000 0.490000
vt 0.042154 0.130000
vt 0.457846 0.130000
vt 0.333333 1.000000
vt 0.166667 0.500000
vt 0.166667 1.000000
vt -0.000000 0.500000
vt 0.542154 0.130000
vt 0.542154 0.370000
vt 0.957846 0.370000
vt 0.457846 0.370000
vt 0.042154 0.370000
vt 0.250000 0.010000
vt -0.000000 1.000000
vt 0.750000 0.490000
vt 0.957846 0.130000
vt 0.750000 0.010000
vn 0.5000 0.0000 -0.8660
vn 1.0000 0.0000 0.0000
vn 0.5000 0.0000 0.8660
vn -0.5000 0.0000 0.8660
vn 0.0000 1.0000 0.0000
vn -1.0000 0.0000 0.0000
vn -0.5000 0.0000 -0.8660
vn 0.0000 -1.0000 0.0000
usemtl red-cone
s off
f 6/5/2 7/6/2 5/7/2
f 8/8/3 9/9/3 7/6/3
f 10/10/4 11/11/4 9/9/4
f 12/12/5 13/13/5 11/11/5
f 6/14/6 14/15/6 10/16/6
f 14/17/7 15/18/7 13/13/7
f 16/19/8 5/20/8 15/18/8
f 13/21/9 15/22/9 7/23/9
f 6/5/2 8/8/2 7/6/2
f 8/8/3 10/10/3 9/9/3
f 10/10/4 12/12/4 11/11/4
f 12/12/5 14/17/5 13/13/5
f 10/16/6 8/24/6 6/14/6
f 6/14/6 16/25/6 14/15/6
f 14/15/6 12/26/6 10/16/6
f 14/17/7 16/19/7 15/18/7
f 16/19/8 6/27/8 5/20/8
f 15/22/9 5/28/9 7/23/9
f 7/23/9 9/29/9 11/30/9
f 11/30/9 13/21/9 7/23/9
