# Blender v2.80 (sub 75) OBJ File: ''
# www.blender.org
mtllib test.mtl
o Plane
v -9.506209 0.000000 9.506209
v 9.506209 0.000000 9.506209
v -9.506209 0.000000 -9.506209
v 9.506209 0.000000 -9.506209
vt 1.000000 0.000000
vt 0.000000 1.000000
vt 0.000000 0.000000
vt 1.000000 1.000000
vn 0.0000 1.0000 0.0000
usemtl Material.007
s off
f 2/1/1 3/2/1 1/3/1
f 2/1/1 4/4/1 3/2/1
o Cube_Cube.004
v -1.349887 0.001151 0.723017
v -1.349887 2.001151 0.723017
v -1.349887 0.001151 -1.276983
v -1.349887 2.001151 -1.276983
v 0.650113 0.001151 0.723017
v 0.650113 2.001151 0.723017
v 0.650113 0.001151 -1.276983
v 0.650113 2.001151 -1.276983
vt 0.625000 0.000000
vt 0.375000 0.250000
vt 0.375000 0.000000
vt 0.625000 0.250000
vt 0.375000 0.500000
vt 0.625000 0.500000
vt 0.375000 0.750000
vt 0.625000 0.750000
vt 0.375000 1.000000
vt 0.125000 0.750000
vt 0.125000 0.500000
vt 0.875000 0.500000
vt 0.625000 1.000000
vt 0.875000 0.750000
vn -1.0000 0.0000 0.0000
vn 0.0000 0.0000 -1.0000
vn 1.0000 0.0000 0.0000
vn 0.0000 0.0000 1.0000
vn 0.0000 -1.0000 0.0000
vn 0.0000 1.0000 0.0000
usemtl Material.005
s off
f 6/5/2 7/6/2 5/7/2
f 8/8/3 11/9/3 7/6/3
f 12/10/4 9/11/4 11/9/4
f 10/12/5 5/13/5 9/11/5
f 11/9/6 5/14/6 7/15/6
f 8/16/7 10/12/7 12/10/7
f 6/5/2 8/8/2 7/6/2
f 8/8/3 12/10/3 11/9/3
f 12/10/4 10/12/4 9/11/4
f 10/12/5 6/17/5 5/13/5
f 11/9/6 9/11/6 5/14/6
f 8/16/7 6/18/7 10/12/7
o Cube.001_Cube.005
v -1.213805 1.995922 -0.262763
v -1.282453 2.762668 0.891137
v -1.846239 3.006494 -0.971895
v -1.914886 3.773240 0.182005
v 0.018839 2.557117 -0.562336
v -0.049808 3.323864 0.591564
v -0.613595 3.567690 -1.271468
v -0.682242 4.334436 -0.117568
vt 0.625000 0.000000
vt 0.375000 0.250000
vt 0.375000 0.000000
vt 0.625000 0.250000
vt 0.375000 0.500000
vt 0.625000 0.500000
vt 0.375000 0.750000
vt 0.625000 0.750000
vt 0.375000 1.000000
vt 0.125000 0.750000
vt 0.125000 0.500000
vt 0.875000 0.500000
vt 0.625000 1.000000
vt 0.875000 0.750000
vn -0.8886 -0.4046 0.2160
vn -0.4559 0.7285 -0.5112
vn 0.8886 0.4046 -0.2160
vn 0.4559 -0.7285 0.5112
vn 0.0495 -0.5528 -0.8319
vn -0.0495 0.5528 0.8319
usemtl Material.006
s off
f 14/19/8 15/20/8 13/21/8
f 16/22/9 19/23/9 15/20/9
f 20/24/10 17/25/10 19/23/10
f 18/26/11 13/27/11 17/25/11
f 19/23/12 13/28/12 15/29/12
f 16/30/13 18/26/13 20/24/13
f 14/19/8 16/22/8 15/20/8
f 16/22/9 20/24/9 19/23/9
f 20/24/10 18/26/10 17/25/10
f 18/26/11 14/31/11 13/27/11
f 19/23/12 17/25/12 13/28/12
f 16/30/13 14/32/13 18/26/13
